<?xml version="1.0" standalone="no"?>
<!DOCTYPE svg PUBLIC "-//W3C//DTD SVG 20010904//EN"
 "http://www.w3.org/TR/2001/REC-SVG-20010904/DTD/svg10.dtd">
<svg version="1.0" xmlns="http://www.w3.org/2000/svg"
 width="1080.000000pt" height="1080.000000pt" viewBox="0 0 1080.000000 1080.000000"
 preserveAspectRatio="xMidYMid meet">

<g transform="translate(0.000000,1080.000000) scale(0.100000,-0.100000)"
fill="#000000" stroke="none">
<path d="M0 5400 l0 -5400 5400 0 5400 0 0 5400 0 5400 -5400 0 -5400 0 0
-5400z m4277 2934 c15 -11 35 -36 44 -55 9 -19 239 -865 510 -1881 271 -1017
497 -1848 501 -1848 4 0 8 13 8 29 0 17 11 96 25 178 173 1006 598 1934 1243
2713 126 152 430 454 567 564 119 95 344 249 428 294 l52 27 220 0 c200 0 223
-2 248 -19 15 -10 34 -31 41 -45 20 -38 1529 -5701 1528 -5733 0 -14 -8 -40
-16 -57 -33 -62 -21 -61 -613 -61 -515 0 -539 1 -570 20 -17 10 -36 27 -41 37
-6 10 -312 1121 -681 2468 -370 1348 -674 2456 -677 2464 -6 19 -40 -13 -166
-159 -582 -670 -1010 -1565 -1173 -2455 -128 -699 -110 -1396 56 -2086 36
-151 39 -168 27 -204 -8 -25 -26 -48 -47 -62 l-34 -23 -546 0 c-517 0 -548 1
-577 19 -17 10 -36 32 -42 47 -6 16 -307 1111 -667 2434 -361 1323 -657 2409
-658 2413 -1 5 -45 -41 -96 -102 -402 -475 -694 -968 -886 -1496 -216 -595
-286 -1285 -199 -1960 46 -357 161 -811 286 -1125 34 -87 37 -126 12 -169 -37
-62 -31 -62 -588 -59 l-506 3 -29 30 c-24 25 -34 53 -59 160 -145 621 -116
1283 88 2026 288 1051 963 2184 1847 3099 231 239 607 571 668 590 17 5 123 8
237 7 191 -2 209 -4 235 -23z"/>
</g>
</svg>
